#!OML:ASF X:\für Bonn\!DataBase\2005_08_10_Bjorn_Final\c3d\bjorn.ASF
:FULLY-SPECIFIED
:DEGREES
196
root -0.931476 17.7684 -30.1716 58.2023 -76.2748 -56.8712
lowerback 4.4146 2.76652 10.4968
upperback 9.07191 3.11375 2.91974
thorax 7.62176 1.97825 -2.67502
lowerneck -6.24068 3.45351 6.70533
upperneck -0.629067 4.26407 -10.8097
head 1.22577 1.93862 -4.20732
rclavicle 3.26752e-014 3.67752e-014
rhumerus -24.4027 12.0204 -97.8918
rradius 83.2325
rwrist 3.08389
rhand -33.7487 30.1353
rfingers 7.12502
rthumb -6.93698 0.268915
lclavicle 3.26752e-014 3.67752e-014
lhumerus -51.1418 -24.772 103.842
lradius 84.1694
lwrist -12.4225
lhand -38.7934 -25.248
lfingers 7.12502
lthumb -11.8045 4.39927
rfemur 5.55239 -6.15494 18.1556
rtibia 33.4756
rfoot -24.7767 17.3263
rtoes -30.4636
lfemur -37.8841 4.82555 -21.6468
ltibia 78.9697
lfoot -18.7301 2.72612
ltoes -8.19363
197
root -1.23379 17.8669 -30.1586 56.8444 -76.1657 -55.3693
lowerback 4.23697 3.14987 10.2384
upperback 8.96045 3.63817 2.79238
thorax 7.65125 2.23063 -2.64099
lowerneck -6.20534 3.20314 6.55833
upperneck -0.531671 3.94545 -10.1013
head 1.32317 1.80011 -4.40981
rclavicle -2.98177e-014 -3.80424e-014
rhumerus -24.0792 12.3623 -98.6029
rradius 83.7504
rwrist 2.5834
rhand -33.7295 30.9999
rfingers 7.12502
rthumb -6.91842 1.13293
lclavicle -2.98177e-014 -3.80424e-014
lhumerus -51.865 -24.671 103.489
lradius 84.3016
lwrist -12.3337
lhand -38.758 -24.9581
lfingers 7.12502
lthumb -11.7703 4.6912
rfemur 7.39501 -6.21992 18.0569
rtibia 31.4605
rfoot -22.4286 17.1084
rtoes -30.9167
lfemur -38.5442 4.84333 -22.318
ltibia 75.8787
lfoot -18.6051 2.50835
ltoes -8.66165
198
root -1.55699 17.9732 -30.1399 55.7523 -76.0303 -54.0994
lowerback 3.79987 3.52869 9.95467
upperback 8.85777 4.12499 2.68438
thorax 7.83008 2.4672 -2.55343
lowerneck -5.95321 2.95951 6.32134
upperneck -0.47891 3.64458 -9.67776
head 1.24719 1.66372 -4.22303
rclavicle -5.56286e-014 -3.09234e-014
rhumerus -24.0501 12.8514 -99.3815
rradius 84.3118
rwrist 1.78688
rhand -33.379 32.1009
rfingers 7.12502
rthumb -6.58006 2.22317
lclavicle -5.56286e-014 -3.09234e-014
lhumerus -52.6402 -24.6082 103.123
lradius 84.5081
lwrist -11.9807
lhand -38.7468 -24.7004
lfingers 7.12502
lthumb -11.7595 4.9495
rfemur 9.30957 -6.28548 17.9711
rtibia 29.2712
rfoot -19.62 16.9579
rtoes -30.5667
lfemur -39.0023 4.93677 -22.8925
ltibia 72.5594
lfoot -18.3157 2.28451
ltoes -9.51874
199
root -1.89041 18.0806 -30.1182 54.7412 -75.8337 -52.8738
lowerback 3.23183 3.88854 9.67257
upperback 8.73945 4.57676 2.57726
thorax 8.06139 2.68737 -2.45285
lowerneck -5.5111 2.72692 6.23177
upperneck -0.490672 3.35479 -9.34409
head 1.1257 1.53639 -4.09917
rclavicle -2.06674e-014 -2.52084e-014
rhumerus -24.3462 13.5065 -100.215
rradius 84.8392
rwrist 1.0585
rhand -33.0941 33.303
rfingers 7.12502
rthumb -6.30509 3.41686
lclavicle -2.06674e-014 -2.52084e-014
lhumerus -53.3953 -24.4993 102.816
lradius 84.6756
lwrist -11.5739
lhand -38.893 -24.4078
lfingers 7.12502
lthumb -11.9005 5.23402
rfemur 11.1796 -6.40629 17.9106
rtibia 27.0214
rfoot -16.2685 16.824
rtoes -29.8187
lfemur -39.3472 5.04932 -23.3757
ltibia 69.0624
lfoot -17.6714 1.92715
ltoes -9.93659
200
root -2.2192 18.183 -30.0934 53.649 -75.5973 -51.6241
lowerback 2.75972 4.18973 9.37401
upperback 8.62374 4.96133 2.49757
thorax 8.22552 2.86815 -2.31995
lowerneck -4.96052 2.52553 6.10023
upperneck -0.546301 3.1114 -8.99192
head 0.975077 1.43438 -3.95918
rclavicle 1.70209e-014 -1.22998e-014
rhumerus -24.7498 14.3787 -100.955
rradius 85.2978
rwrist 0.567914
rhand -32.7695 34.2907
rfingers 7.12502
rthumb -5.99167 4.39538
lclavicle 1.70209e-014 -1.22998e-014
lhumerus -53.9181 -24.4282 102.489
lradius 84.7289
lwrist -10.9708
lhand -39.2492 -24.3426
lfingers 7.12502
lthumb -12.2439 5.27901
rfemur 12.9042 -6.60214 17.7935
rtibia 25.0096
rfoot -12.425 16.7121
rtoes -28.5279
lfemur -39.4841 5.13775 -23.7891
ltibia 65.5091
lfoot -16.764 1.34797
ltoes -8.82542
201
root -2.54949 18.2768 -30.0684 52.6949 -75.3434 -50.5263
lowerback 2.28734 4.43993 8.99854
upperback 8.50004 5.2804 2.45382
thorax 8.35775 3.00755 -2.109
lowerneck -4.30274 2.37683 6.02481
upperneck -0.640155 2.93912 -8.71222
head 0.803954 1.36852 -3.85477
rclavicle 2.07978e-014 1.4064e-014
rhumerus -25.2939 15.4467 -101.654
rradius 85.8652
rwrist 0.312766
rhand -32.3235 34.6332
rfingers 7.12502
rthumb -5.56108 4.7262
lclavicle 2.07978e-014 1.4064e-014
lhumerus -54.5217 -24.2309 102.171
lradius 84.9603
lwrist -10.2766
lhand -39.8176 -24.6265
lfingers 7.12502
lthumb -12.7919 4.96157
rfemur 14.4576 -6.70752 17.7079
rtibia 23.1231
rfoot -8.46488 16.2676
rtoes -27.4568
lfemur -39.418 5.30709 -24.1285
ltibia 61.9495
lfoot -15.6039 0.546507
ltoes -6.12247
202
root -2.87391 18.3272 -30.0504 51.8248 -75.0739 -49.5612
lowerback 1.84164 4.66441 8.64083
upperback 8.39148 5.56855 2.40856
thorax 8.48789 3.13219 -1.9096
lowerneck -3.69413 2.25914 5.91671
upperneck -0.688124 2.81025 -8.36534
head 0.659541 1.32247 -3.7191
rclavicle 1.74682e-013 -4.96962e-015
rhumerus -25.8196 16.5344 -102.337
rradius 86.4264
rwrist 0.0378416
rhand -31.6682 34.7328
rfingers 7.12502
rthumb -4.92831 4.81011
lclavicle 1.74682e-013 -4.96962e-015
lhumerus -55.0765 -24.0157 101.919
lradius 85.1586
lwrist -9.55511
lhand -40.6225 -24.9959
lfingers 7.12502
lthumb -13.5678 4.54207
rfemur 15.8642 -6.72697 17.6269
rtibia 21.5294
rfoot -4.68869 15.6466
rtoes -26.6733
lfemur -39.4382 5.64277 -24.4769
ltibia 58.6319
lfoot -14.2901 -0.254211
ltoes -3.4459
